<svg viewBox="0 0 16 16" fill="currentColor" xmlns="http://www.w3.org/2000/svg">
  <g transform="matrix(0.9999999999999999, 0, 0, 0.9999999999999999, 0, -2.220446049250313e-16)">
    <path d="M0 3.5A1.5 1.5 0 0 1 1.5 2h13A1.5 1.5 0 0 1 16 3.5v9a1.5 1.5 0 0 1-1.5 1.5h-13A1.5 1.5 0 0 1 0 12.5zM1.5 3a.5.5 0 0 0-.5.5v9a.5.5 0 0 0 .5.5h13a.5.5 0 0 0 .5-.5v-9a.5.5 0 0 0-.5-.5z"/>
    <path d="M2 4.5a.5.5 0 0 1 .5-.5h3a.5.5 0 0 1 0 1H3v2.5a.5.5 0 0 1-1 0zm12 7a.5.5 0 0 1-.5.5h-3a.5.5 0 0 1 0-1H13V8.5a.5.5 0 0 1 1 0z"/>
    <path d="M 9.809 5.997 Q 9.809 6.128 9.72 6.222 Q 9.63 6.315 9.492 6.315 L 8.767 6.315 Q 8.678 6.315 8.678 6.404 L 8.678 9.841 Q 8.678 9.972 8.585 10.065 Q 8.491 10.158 8.36 10.158 L 8.181 10.158 Q 8.05 10.158 7.957 10.065 Q 7.864 9.972 7.864 9.841 L 7.864 6.404 Q 7.864 6.315 7.774 6.315 L 7.042 6.315 Q 6.911 6.315 6.818 6.222 Q 6.725 6.128 6.725 5.997 L 6.725 5.811 Q 6.725 5.673 6.818 5.583 Q 6.911 5.494 7.042 5.494 L 9.492 5.494 Q 9.63 5.494 9.72 5.583 Q 9.809 5.673 9.809 5.811 Z" style="text-transform: uppercase;"/>
  </g>
</svg>