<svg xmlns="http://www.w3.org/2000/svg" xmlns:xlink="http://www.w3.org/1999/xlink" width="344" zoomAndPan="magnify" viewBox="0 0 258 77.999999" height="104" preserveAspectRatio="xMidYMid meet" version="1.0"><defs><g/></defs><g fill="#f6f4ea" fill-opacity="1"><g transform="translate(61.247239, 61.556859)"><g><path d="M 17.417969 0.582031 L 22.53125 0.710938 L 23.828125 0.582031 L 25.121094 0.257812 L 26.417969 0.0664062 L 27.710938 -0.453125 L 28.878906 -0.582031 L 30.109375 -1.164062 L 34.511719 -3.820312 L 36.386719 -5.761719 L 37.035156 -6.667969 L 37.75 -8.09375 L 38.136719 -9.257812 L 38.523438 -10.359375 L 38.914062 -13.597656 L 38.785156 -15.667969 L 37.8125 -19.425781 L 37.101562 -20.460938 L 35.417969 -22.402344 L 34.25 -23.4375 L 33.214844 -23.957031 L 32.050781 -24.667969 L 27 -26.222656 L 25.707031 -26.417969 L 24.410156 -26.480469 L 23.050781 -26.742188 L 21.171875 -26.742188 L 17.742188 -27.453125 L 15.34375 -28.617188 L 14.375 -29.523438 L 14.113281 -31.46875 L 14.4375 -33.214844 L 15.214844 -34.058594 L 16.1875 -34.769531 L 17.222656 -35.351562 L 18.386719 -35.613281 L 20.460938 -35.675781 L 22.53125 -35.417969 L 23.699219 -35.09375 L 24.863281 -34.316406 L 25.964844 -33.410156 L 26.933594 -32.117188 L 28.359375 -31.273438 L 31.402344 -31.53125 L 33.152344 -31.402344 L 34.445312 -31.402344 L 35.613281 -31.273438 L 36.84375 -32.179688 L 37.359375 -33.28125 L 37.101562 -34.511719 L 36.972656 -35.742188 L 35.160156 -39.109375 L 33.734375 -41.050781 L 29.460938 -44.027344 L 25.835938 -45.257812 L 23.308594 -45.777344 L 18.324219 -45.90625 L 16.898438 -45.519531 L 15.605469 -45.453125 L 14.4375 -45.257812 L 11.976562 -44.480469 L 9.777344 -43.1875 L 6.667969 -41.050781 L 4.402344 -38.007812 L 3.238281 -34.445312 L 3.042969 -31.273438 L 3.109375 -29.265625 L 3.5625 -26.675781 L 4.597656 -24.410156 L 6.992188 -21.433594 L 11.394531 -19.035156 L 13.726562 -18.257812 L 23.890625 -17.09375 L 26.222656 -15.992188 L 27.066406 -15.214844 L 27.453125 -13.597656 L 26.933594 -11.976562 L 26.09375 -11.007812 L 23.890625 -10.035156 L 21.886719 -9.90625 L 20.71875 -9.710938 L 17.417969 -10.035156 L 16.316406 -10.617188 L 15.214844 -11.332031 L 13.078125 -13.660156 L 11.785156 -14.179688 L 10.617188 -14.050781 L 9.386719 -14.246094 L 4.402344 -13.984375 L 3.238281 -13.46875 L 2.71875 -12.109375 L 2.914062 -10.8125 L 3.171875 -9.519531 L 3.5625 -8.351562 L 4.792969 -5.957031 L 5.699219 -5.113281 L 6.539062 -4.144531 L 8.804688 -2.71875 L 9.710938 -1.75 L 10.941406 -1.164062 L 12.238281 -0.777344 L 14.761719 0.128906 Z M 17.417969 0.582031 "/></g></g></g><g fill="#f6f4ea" fill-opacity="1"><g transform="translate(98.926622, 61.556859)"><g><path d="M 22.273438 0.839844 L 24.214844 0.648438 L 25.445312 0.710938 L 30.496094 -0.582031 L 32.828125 -1.8125 L 34.964844 -3.238281 L 36.777344 -5.050781 L 38.265625 -7.316406 L 38.65625 -8.613281 L 39.300781 -9.710938 L 39.886719 -12.433594 L 40.207031 -15.539062 L 40.207031 -33.023438 L 40.078125 -34.25 L 40.207031 -35.675781 L 40.078125 -36.710938 L 40.078125 -42.085938 L 40.273438 -43.382812 L 39.433594 -44.742188 L 38.007812 -45.195312 L 33.929688 -45.066406 L 31.207031 -45.257812 L 29.847656 -44.613281 L 29.136719 -43.1875 L 29.265625 -17.675781 L 28.8125 -13.660156 L 28.425781 -12.691406 L 27.710938 -11.394531 L 26.613281 -10.617188 L 24.34375 -9.777344 L 20.460938 -9.777344 L 18.972656 -10.101562 L 17.871094 -10.75 L 16.835938 -11.523438 L 16.058594 -12.5625 L 15.667969 -13.792969 L 15.28125 -17.546875 L 15.476562 -38.394531 L 15.34375 -39.367188 L 15.476562 -41.4375 L 15.34375 -43.316406 L 14.570312 -44.742188 L 13.207031 -45.324219 L 11.976562 -45.324219 L 10.683594 -45.128906 L 7.898438 -45.390625 L 6.539062 -45.195312 L 5.179688 -44.675781 L 4.339844 -43.445312 L 4.46875 -42.152344 L 4.46875 -40.597656 L 4.339844 -39.5625 L 4.53125 -30.496094 L 4.339844 -29.203125 L 4.46875 -27.972656 L 4.273438 -17.546875 L 4.660156 -12.367188 L 5.308594 -9.710938 L 6.34375 -7.511719 L 7.835938 -5.179688 L 8.613281 -4.273438 L 9.582031 -3.433594 L 11.65625 -2.070312 L 12.949219 -1.488281 L 13.921875 -0.90625 L 16.382812 0.195312 L 18.90625 0.710938 L 20.203125 0.710938 Z M 22.273438 0.839844 "/></g></g></g><g fill="#f6f4ea" fill-opacity="1"><g transform="translate(139.972593, 61.556859)"><g><path d="M 4.855469 -2.007812 L 5.4375 -0.710938 L 6.667969 0.0664062 L 8.804688 -0.128906 L 10.75 0.0664062 L 20.136719 -0.0664062 L 21.433594 0.128906 L 28.101562 -0.195312 L 29.265625 -0.386719 L 32.890625 -1.425781 L 34.058594 -2.007812 L 36.648438 -4.078125 L 38.394531 -6.476562 L 39.042969 -7.769531 L 39.433594 -9 L 39.949219 -10.230469 L 40.078125 -15.476562 L 39.367188 -17.804688 L 38.203125 -20.460938 L 37.359375 -21.433594 L 36.324219 -22.339844 L 35.675781 -23.828125 L 36.128906 -25.058594 L 37.359375 -27.582031 L 38.136719 -29.914062 L 38.203125 -32.117188 L 38.070312 -34.121094 L 37.554688 -36.453125 L 37.101562 -37.8125 L 34.964844 -40.792969 L 33.992188 -41.699219 L 33.023438 -42.34375 L 32.117188 -43.058594 L 31.015625 -43.707031 L 29.785156 -44.289062 L 28.683594 -44.675781 L 26.160156 -45.257812 L 19.488281 -45.453125 L 18.324219 -45.195312 L 15.796875 -45.519531 L 14.632812 -45.257812 L 6.796875 -45.390625 L 5.375 -44.742188 L 4.726562 -43.382812 L 4.726562 -41.957031 L 4.855469 -40.792969 L 4.792969 -39.433594 L 4.855469 -38.265625 L 4.726562 -34.445312 L 4.921875 -31.726562 L 4.660156 -19.359375 L 4.855469 -17.417969 L 4.726562 -3.238281 Z M 18.128906 -27.648438 L 16.769531 -28.425781 L 16.058594 -30.238281 L 15.992188 -32.4375 L 16.769531 -34.316406 L 18 -35.09375 L 24.667969 -34.640625 L 25.707031 -34.121094 L 26.222656 -33.085938 L 26.417969 -31.144531 L 25.964844 -29.265625 L 24.992188 -28.488281 L 23.113281 -27.84375 Z M 17.933594 -10.359375 L 16.769531 -10.8125 L 15.929688 -12.109375 L 16.121094 -15.992188 L 16.707031 -17.09375 L 17.804688 -17.933594 L 19.035156 -17.742188 L 20.394531 -17.871094 L 26.480469 -17.289062 L 27.582031 -16.835938 L 28.230469 -15.667969 L 28.617188 -14.050781 L 28.296875 -12.171875 L 27.582031 -11.265625 L 26.480469 -10.554688 L 22.921875 -10.230469 Z M 17.933594 -10.359375 "/></g></g></g><g fill="#f6f4ea" fill-opacity="1"><g transform="translate(179.076307, 61.556859)"><g><path d="M 4.855469 -2.007812 L 5.4375 -0.710938 L 6.667969 0.0664062 L 8.804688 -0.128906 L 10.75 0.0664062 L 20.136719 -0.0664062 L 21.433594 0.128906 L 28.101562 -0.195312 L 29.265625 -0.386719 L 32.890625 -1.425781 L 34.058594 -2.007812 L 36.648438 -4.078125 L 38.394531 -6.476562 L 39.042969 -7.769531 L 39.433594 -9 L 39.949219 -10.230469 L 40.078125 -15.476562 L 39.367188 -17.804688 L 38.203125 -20.460938 L 37.359375 -21.433594 L 36.324219 -22.339844 L 35.675781 -23.828125 L 36.128906 -25.058594 L 37.359375 -27.582031 L 38.136719 -29.914062 L 38.203125 -32.117188 L 38.070312 -34.121094 L 37.554688 -36.453125 L 37.101562 -37.8125 L 34.964844 -40.792969 L 33.992188 -41.699219 L 33.023438 -42.34375 L 32.117188 -43.058594 L 31.015625 -43.707031 L 29.785156 -44.289062 L 28.683594 -44.675781 L 26.160156 -45.257812 L 19.488281 -45.453125 L 18.324219 -45.195312 L 15.796875 -45.519531 L 14.632812 -45.257812 L 6.796875 -45.390625 L 5.375 -44.742188 L 4.726562 -43.382812 L 4.726562 -41.957031 L 4.855469 -40.792969 L 4.792969 -39.433594 L 4.855469 -38.265625 L 4.726562 -34.445312 L 4.921875 -31.726562 L 4.660156 -19.359375 L 4.855469 -17.417969 L 4.726562 -3.238281 Z M 18.128906 -27.648438 L 16.769531 -28.425781 L 16.058594 -30.238281 L 15.992188 -32.4375 L 16.769531 -34.316406 L 18 -35.09375 L 24.667969 -34.640625 L 25.707031 -34.121094 L 26.222656 -33.085938 L 26.417969 -31.144531 L 25.964844 -29.265625 L 24.992188 -28.488281 L 23.113281 -27.84375 Z M 17.933594 -10.359375 L 16.769531 -10.8125 L 15.929688 -12.109375 L 16.121094 -15.992188 L 16.707031 -17.09375 L 17.804688 -17.933594 L 19.035156 -17.742188 L 20.394531 -17.871094 L 26.480469 -17.289062 L 27.582031 -16.835938 L 28.230469 -15.667969 L 28.617188 -14.050781 L 28.296875 -12.171875 L 27.582031 -11.265625 L 26.480469 -10.554688 L 22.921875 -10.230469 Z M 17.933594 -10.359375 "/></g></g></g><g fill="#f6f4ea" fill-opacity="1"><g transform="translate(218.180013, 61.556859)"><g><path d="M 14.828125 -1.941406 L 15.34375 -0.519531 L 16.707031 0 L 18 0.0664062 L 19.164062 -0.0664062 L 21.171875 0.0664062 L 22.984375 -0.0664062 L 24.28125 0.0664062 L 25.574219 -0.648438 L 26.09375 -2.007812 L 26.289062 -9.519531 L 26.160156 -10.8125 L 26.160156 -12.109375 L 26.351562 -13.273438 L 26.289062 -17.027344 L 26.675781 -18.90625 L 27.324219 -20.589844 L 35.546875 -34.121094 L 36.324219 -35.027344 L 40.46875 -41.890625 L 41.179688 -43.511719 L 40.921875 -44.933594 L 39.753906 -45.195312 L 37.230469 -45.257812 L 35.871094 -45.128906 L 34.574219 -45.324219 L 32.050781 -45.257812 L 30.949219 -45.324219 L 29.203125 -44.675781 L 28.035156 -43.574219 L 26.351562 -40.792969 L 25.574219 -38.847656 L 24.152344 -36.777344 L 23.503906 -35.417969 L 22.855469 -34.316406 L 21.753906 -31.855469 L 20.914062 -30.753906 L 20.203125 -30.753906 L 19.488281 -31.984375 L 18.777344 -33.023438 L 16.835938 -36.648438 L 16.121094 -37.75 L 13.078125 -43.445312 L 11.71875 -44.675781 L 10.230469 -45.257812 L 8.871094 -45.195312 L 7.769531 -45.453125 L 4.46875 -45.195312 L 1.488281 -45.390625 L 0.195312 -44.742188 L 0 -43.316406 L 0.648438 -41.828125 L 3.433594 -37.230469 L 4.144531 -36.324219 L 6.796875 -31.726562 L 8.351562 -29.65625 L 8.871094 -28.488281 L 13.855469 -20.589844 L 14.503906 -18.777344 L 14.828125 -17.027344 L 14.761719 -11.914062 L 14.890625 -10.617188 L 14.761719 -5.632812 L 14.890625 -4.402344 Z M 14.828125 -1.941406 "/></g></g></g><path stroke-linecap="butt" transform="matrix(0.60164, 0, 0, 0.60164, 60.95582, 1.392892)" fill="none" stroke-linejoin="miter" d="M 29.439796 100.970291 L 37.92572 101.184549 L 40.081288 100.970291 L 42.236855 100.418414 L 44.38593 100.106766 L 46.541498 99.236747 L 48.4893 99.028982 L 50.534492 98.055081 L 57.83875 93.640063 L 60.968219 90.406711 L 62.046002 88.913396 L 63.227669 86.550063 L 63.883429 84.602261 L 64.513218 82.790805 L 65.168978 77.401886 L 64.935242 73.960769 L 63.331552 67.708325 L 62.149885 66.000751 L 59.364528 62.7674 L 57.423219 61.033856 L 55.689675 60.170331 L 53.767844 58.988664 L 45.359831 56.411073 L 43.204264 56.092932 L 41.055189 55.989049 L 38.789246 55.541054 L 35.66627 55.541054 L 29.965702 54.359388 L 25.998679 52.444049 L 24.369018 50.918271 L 23.946994 47.684919 L 24.472901 44.79568 L 25.784421 43.406248 L 27.388111 42.19861 L 29.121655 41.25068 L 31.043486 40.802685 L 34.484603 40.698803 L 37.92572 41.120826 L 39.86703 41.672704 L 41.814832 42.958253 L 43.626288 44.458061 L 45.255949 46.613628 L 47.619282 48.029031 L 52.69006 47.581037 L 55.5793 47.795295 L 57.734867 47.795295 L 59.682669 48.029031 L 61.727861 46.503253 L 62.571909 44.691797 L 62.149885 42.640112 L 61.94212 40.59492 L 58.916534 34.998235 L 56.553201 31.764884 L 49.456708 26.823959 L 43.418522 24.778767 L 39.23724 23.908749 L 30.939603 23.700983 L 28.569778 24.356743 L 26.41421 24.460626 L 24.472901 24.778767 L 20.401994 26.064316 L 16.720648 28.219884 L 11.571958 31.764884 L 7.8127 36.835662 L 5.871391 42.750487 L 5.55325 48.029031 L 5.663625 51.366265 L 6.397297 55.65143 L 8.130841 59.430166 L 12.097865 64.37109 L 19.428093 68.364085 L 23.291234 69.656127 L 40.185171 71.597436 L 44.074282 73.408892 L 45.463714 74.700934 L 46.125967 77.401886 L 45.255949 80.08336 L 43.866516 81.713021 L 40.185171 83.316712 L 36.847936 83.524477 L 34.932598 83.868589 L 29.439796 83.316712 L 27.602369 82.342811 L 25.784421 81.161144 L 22.21345 77.298003 L 20.057883 76.434478 L 18.142544 76.642243 L 16.090859 76.324102 L 7.8127 76.746126 L 5.871391 77.616144 L 5.001373 79.875595 L 5.319514 82.031162 L 5.767508 84.180237 L 6.397297 86.128039 L 8.44249 90.095063 L 9.942297 91.484495 L 11.364193 93.114156 L 15.116958 95.483982 L 16.616766 97.08118 L 18.66845 98.055081 L 20.824018 98.710841 L 25.024778 100.210648 Z M 100.132025 101.392315 L 103.365377 101.074174 L 105.417062 101.184549 L 113.792611 99.028982 L 117.681722 96.977297 L 121.233214 94.613964 L 124.252308 91.620841 L 126.719524 87.835613 L 127.355806 85.680045 L 128.433589 83.868589 L 129.400998 79.349688 L 129.952875 74.175027 L 129.952875 45.113821 L 129.719139 43.062136 L 129.952875 40.698803 L 129.719139 38.99123 L 129.719139 30.057311 L 130.056758 27.901743 L 128.641355 25.642293 L 126.278022 24.88265 L 119.499671 25.090415 L 114.98077 24.778767 L 112.721319 25.856551 L 111.53316 28.219884 L 111.747418 70.623535 L 111.007254 77.298003 L 110.351494 78.901694 L 109.169827 81.057261 L 107.3324 82.342811 L 103.573142 83.764706 L 97.112932 83.764706 L 94.639224 83.212829 L 92.801797 82.135045 L 91.094224 80.843003 L 89.808674 79.109459 L 89.152914 77.090238 L 88.516632 70.837793 L 88.834773 36.179902 L 88.627008 34.576211 L 88.834773 31.135095 L 88.627008 28.005626 L 87.334966 25.642293 L 85.075515 24.668392 L 83.030323 24.668392 L 80.874756 24.986533 L 76.251972 24.564509 L 73.992522 24.88265 L 71.733071 25.746175 L 70.311176 27.79786 L 70.544912 29.953428 L 70.544912 32.524527 L 70.311176 34.2321 L 70.655288 49.31458 L 70.311176 51.470148 L 70.544912 53.521833 L 70.207293 70.837793 L 70.863053 79.453571 L 71.940837 83.868589 L 73.64841 87.517472 L 76.141597 91.380612 L 77.433639 92.906391 L 79.037329 94.295823 L 82.478446 96.555273 L 84.634014 97.529174 L 86.257182 98.503075 L 90.334581 100.314531 L 94.535341 101.184549 L 96.690908 101.184549 Z M 139.399715 96.665649 L 140.373616 98.814724 L 142.425301 100.106766 L 145.970301 99.788625 L 149.203652 100.106766 L 164.812039 99.892507 L 166.961114 100.210648 L 178.050601 99.684742 L 179.972432 99.34063 L 186.010618 97.633057 L 187.93245 96.665649 L 192.237092 93.218039 L 195.158796 89.225045 L 196.236579 87.07597 L 196.866369 85.050256 L 197.729894 82.998571 L 197.944152 74.27891 L 196.755993 70.415769 L 194.840655 66.000751 L 193.425252 64.37109 L 191.711186 62.871283 L 190.639895 60.404067 L 191.399538 58.352382 L 193.425252 54.151622 L 194.736772 50.288481 L 194.840655 46.613628 L 194.606918 43.276394 L 193.762871 39.413253 L 193.003228 37.153803 L 189.451735 32.212878 L 187.828567 30.6871 L 186.224877 29.609316 L 184.725069 28.42765 L 182.887642 27.349866 L 180.835958 26.375965 L 179.024502 25.746175 L 174.817249 24.778767 L 163.734256 24.460626 L 161.786453 24.88265 L 157.585694 24.356743 L 155.663862 24.778767 L 142.633066 24.564509 L 140.269733 25.642293 L 139.19195 27.901743 L 139.19195 30.265076 L 139.399715 32.212878 L 139.295832 34.472329 L 139.399715 36.387667 L 139.19195 42.750487 L 139.510091 47.269388 L 139.088067 67.812207 L 139.399715 71.045559 L 139.19195 94.613964 Z M 161.474805 54.047739 L 159.215355 52.755697 L 158.033688 49.736604 L 157.923313 46.087722 L 159.215355 42.958253 L 161.260547 41.672704 L 172.350033 42.432346 L 174.057606 43.276394 L 174.927625 45.009938 L 175.239273 48.236797 L 174.47963 51.366265 L 172.87594 52.651815 L 169.746471 53.729598 Z M 161.156664 82.790805 L 159.215355 82.031162 L 157.81943 79.875595 L 158.137571 73.408892 L 159.104979 71.597436 L 160.922928 70.175541 L 162.96812 70.519652 L 165.22757 70.311887 L 175.343156 71.253324 L 177.187075 72.01946 L 178.264859 73.960769 L 178.894648 76.642243 L 178.368742 79.771712 L 177.187075 81.265027 L 175.343156 82.446694 L 169.434823 82.998571 Z M 204.39787 96.665649 L 205.371771 98.814724 L 207.416963 100.106766 L 210.968456 99.788625 L 214.195314 100.106766 L 229.803702 99.892507 L 231.959269 100.210648 L 243.048756 99.684742 L 244.964094 99.34063 L 251.008773 97.633057 L 252.924112 96.665649 L 257.235247 93.218039 L 260.150458 89.225045 L 261.228242 87.07597 L 261.858031 85.050256 L 262.728049 82.998571 L 262.935815 74.27891 L 261.754148 70.415769 L 259.838809 66.000751 L 258.416914 64.37109 L 256.709341 62.871283 L 255.631557 60.404067 L 256.3912 58.352382 L 258.416914 54.151622 L 259.728434 50.288481 L 259.838809 46.613628 L 259.59858 43.276394 L 258.761026 39.413253 L 257.99489 37.153803 L 254.44989 32.212878 L 252.820229 30.6871 L 251.216539 29.609316 L 249.723224 28.42765 L 247.879305 27.349866 L 245.834113 26.375965 L 244.016164 25.746175 L 239.815404 24.778767 L 228.725918 24.460626 L 226.784608 24.88265 L 222.577356 24.356743 L 220.662017 24.778767 L 207.631221 24.564509 L 205.261396 25.642293 L 204.190104 27.901743 L 204.190104 30.265076 L 204.39787 32.212878 L 204.293987 34.472329 L 204.39787 36.387667 L 204.190104 42.750487 L 204.501753 47.269388 L 204.079729 67.812207 L 204.39787 71.045559 L 204.190104 94.613964 Z M 226.466467 54.047739 L 224.207017 52.755697 L 223.02535 49.736604 L 222.921468 46.087722 L 224.207017 42.958253 L 226.258702 41.672704 L 237.348188 42.432346 L 239.055761 43.276394 L 239.919287 45.009938 L 240.237428 48.236797 L 239.471292 51.366265 L 237.867602 52.651815 L 234.744626 53.729598 Z M 226.154819 82.790805 L 224.207017 82.031162 L 222.817585 79.875595 L 223.129233 73.408892 L 224.103134 71.597436 L 225.91459 70.175541 L 227.966275 70.519652 L 230.225725 70.311887 L 240.341311 71.253324 L 242.178737 72.01946 L 243.256521 73.960769 L 243.886311 76.642243 L 243.360404 79.771712 L 242.178737 81.265027 L 240.341311 82.446694 L 234.426485 82.998571 Z M 285.97182 96.769531 L 286.841839 99.132865 L 289.101289 100.002883 L 291.250364 100.106766 L 293.172195 99.892507 L 296.50943 100.106766 L 299.528523 99.892507 L 301.68409 100.106766 L 303.839658 98.925099 L 304.703184 96.665649 L 305.021325 84.180237 L 304.813559 82.031162 L 304.813559 79.875595 L 305.125207 77.927793 L 305.021325 71.701319 L 305.677085 68.578343 L 306.754868 65.767015 L 320.415454 43.276394 L 321.707496 41.776586 L 328.58973 30.375452 L 329.771396 27.668007 L 329.349372 25.304674 L 327.408063 24.88265 L 323.200811 24.778767 L 320.94136 24.986533 L 318.785793 24.668392 L 314.611003 24.778767 L 312.773577 24.668392 L 309.851874 25.746175 L 307.936535 27.564124 L 305.125207 32.212878 L 303.839658 35.420259 L 301.476325 38.861376 L 300.398541 41.120826 L 299.320757 42.958253 L 297.476838 47.05513 L 296.087406 48.873079 L 294.905739 48.873079 L 293.724073 46.847365 L 292.542406 45.113821 L 289.309055 39.095112 L 288.127388 37.257686 L 283.05661 27.79786 L 280.79716 25.746175 L 278.323451 24.778767 L 276.064001 24.88265 L 274.252545 24.460626 L 268.759743 24.88265 L 263.792848 24.564509 L 261.643773 25.642293 L 261.325632 28.005626 L 262.403415 30.479334 L 267.026199 38.121211 L 268.207866 39.621019 L 272.622884 47.269388 L 275.200475 50.710505 L 276.064001 52.651815 L 284.36813 65.767015 L 285.445914 68.786108 L 285.97182 71.701319 L 285.867938 80.187243 L 286.075703 82.342811 L 285.867938 90.64694 L 286.075703 92.672654 Z M 285.97182 96.769531 " stroke="#000000" stroke-width="0.739908" stroke-opacity="1" stroke-miterlimit="4"/><g fill="#f6f4ea" fill-opacity="1"><g transform="translate(16.201487, 23.451479)"><g><path d="M -0.199219 4.382812 C -0.199219 6.207031 0.960938 7.5 2.953125 7.5 L 20.675781 7.5 C 22.667969 7.5 23.832031 6.207031 23.832031 4.382812 C 23.832031 2.523438 22.667969 1.226562 20.675781 1.226562 L 2.953125 1.226562 C 0.960938 1.226562 -0.199219 2.523438 -0.199219 4.382812 Z M 19.484375 2.289062 C 19.484375 2.089844 19.847656 1.992188 20.609375 1.992188 C 22.171875 1.992188 23.066406 3.085938 23.066406 4.515625 C 23.066406 4.679688 22.96875 4.78125 22.867188 4.78125 C 22.800781 4.78125 22.703125 4.714844 22.636719 4.546875 C 22.238281 3.351562 21.574219 2.6875 19.878906 2.554688 C 19.648438 2.523438 19.484375 2.457031 19.484375 2.289062 Z M 19.484375 2.289062 "/></g></g></g><path stroke-linecap="butt" transform="matrix(0, 0.308399, -0.308399, 0, 47.658188, 23.451479)" fill="none" stroke-linejoin="miter" d="M 14.216836 102.653332 C 20.13196 102.653332 24.324479 98.878798 24.324479 92.40636 L 24.324479 34.952386 C 24.324479 28.479948 20.13196 24.730746 14.216836 24.730746 C 8.175049 24.730746 3.995196 28.479948 3.995196 34.952386 L 3.995196 92.40636 C 3.995196 98.878798 8.175049 102.653332 14.216836 102.653332 Z M 7.440408 38.840915 C 6.781764 38.840915 6.465109 37.650291 6.465109 35.155045 C 6.465109 30.11389 10.011651 27.200659 14.634821 27.200659 C 15.192135 27.200659 15.496124 27.542647 15.496124 27.859303 C 15.496124 28.061962 15.293464 28.378618 14.736151 28.619276 C 10.872954 29.898564 8.719696 32.051822 8.276378 37.548961 C 8.175049 38.283602 7.959723 38.840915 7.440408 38.840915 Z M 7.440408 38.840915 " stroke="#000000" stroke-width="0.739908" stroke-opacity="1" stroke-miterlimit="4"/><g fill="#f6f4ea" fill-opacity="1"><g transform="translate(13.18018, 33.362996)"><g><path d="M -0.25 5.472656 C -0.25 7.75 1.203125 9.367188 3.6875 9.367188 L 25.824219 9.367188 C 28.308594 9.367188 29.761719 7.75 29.761719 5.472656 C 29.761719 3.148438 28.308594 1.535156 25.824219 1.535156 L 3.6875 1.535156 C 1.203125 1.535156 -0.25 3.148438 -0.25 5.472656 Z M 24.332031 2.859375 C 24.332031 2.609375 24.785156 2.488281 25.738281 2.488281 C 27.6875 2.488281 28.804688 3.855469 28.804688 5.636719 C 28.804688 5.84375 28.683594 5.96875 28.558594 5.96875 C 28.476562 5.96875 28.351562 5.886719 28.269531 5.679688 C 27.769531 4.1875 26.941406 3.355469 24.828125 3.191406 C 24.539062 3.148438 24.332031 3.066406 24.332031 2.859375 Z M 24.332031 2.859375 "/></g></g></g><path stroke-linecap="butt" transform="matrix(0, 0.385136, -0.385136, 0, 52.46408, 33.362996)" fill="none" stroke-linejoin="miter" d="M 14.210403 102.660543 C 20.123488 102.660543 24.332632 98.877386 24.332632 92.406462 L 24.332632 34.94912 C 24.332632 28.488339 20.123488 24.725466 14.210403 24.725466 C 8.175607 24.725466 3.996891 28.488339 3.996891 34.94912 L 3.996891 92.406462 C 3.996891 98.877386 8.175607 102.660543 14.210403 102.660543 Z M 7.435203 38.833703 C 6.77594 38.833703 6.461522 37.657171 6.461522 35.162113 C 6.461522 30.111141 10.011402 27.200239 14.636388 27.200239 C 15.184084 27.200239 15.498502 27.534942 15.498502 27.84936 C 15.498502 28.062353 15.295652 28.376771 14.737813 28.620191 C 10.873516 29.898148 8.723303 32.058504 8.277032 37.545604 C 8.175607 38.286007 7.962614 38.833703 7.435203 38.833703 Z M 7.435203 38.833703 " stroke="#000000" stroke-width="0.739908" stroke-opacity="1" stroke-miterlimit="4"/><g fill="#f6f4ea" fill-opacity="1"><g transform="translate(10.986519, 45.228425)"><g><path d="M -0.285156 6.261719 C -0.285156 8.867188 1.375 10.71875 4.222656 10.71875 L 29.546875 10.71875 C 32.390625 10.71875 34.050781 8.867188 34.050781 6.261719 C 34.050781 3.605469 32.390625 1.753906 29.546875 1.753906 L 4.222656 1.753906 C 1.375 1.753906 -0.285156 3.605469 -0.285156 6.261719 Z M 27.839844 3.273438 C 27.839844 2.988281 28.359375 2.84375 29.449219 2.84375 C 31.679688 2.84375 32.960938 4.410156 32.960938 6.449219 C 32.960938 6.6875 32.816406 6.828125 32.675781 6.828125 C 32.582031 6.828125 32.4375 6.734375 32.34375 6.496094 C 31.773438 4.789062 30.828125 3.839844 28.40625 3.652344 C 28.074219 3.605469 27.839844 3.507812 27.839844 3.273438 Z M 27.839844 3.273438 "/></g></g></g><path stroke-linecap="butt" transform="matrix(0, 0.440672, -0.440672, 0, 55.93508, 45.228425)" fill="none" stroke-linejoin="miter" d="M 14.214111 102.660824 C 20.126599 102.660824 24.328276 98.875768 24.328276 92.413694 L 24.328276 34.946441 C 24.328276 28.484366 20.126599 24.725903 14.214111 24.725903 C 8.168659 24.725903 3.993574 28.484366 3.993574 34.946441 L 3.993574 92.413694 C 3.993574 98.875768 8.168659 102.660824 14.214111 102.660824 Z M 7.432922 38.837868 C 6.776964 38.837868 6.466713 37.650052 6.466713 35.159184 C 6.466713 30.115397 10.012433 27.199043 14.630733 27.199043 C 15.189184 27.199043 15.499434 27.535886 15.499434 27.855001 C 15.499434 28.067744 15.295555 28.377995 14.737104 28.617331 C 10.881134 29.902654 8.727109 32.056679 8.27503 37.552545 C 8.168659 38.288282 7.96478 38.837868 7.432922 38.837868 Z M 7.432922 38.837868 " stroke="#000000" stroke-width="0.739908" stroke-opacity="1" stroke-miterlimit="4"/><g fill="#f6f4ea" fill-opacity="1"><g transform="translate(48.248151, 21.23457)"><g><path d="M -0.78125 6.183594 C -0.78125 8.449219 1.113281 10.261719 3.339844 10.261719 C 5.441406 10.261719 7.378906 8.40625 7.378906 6.183594 C 7.378906 3.957031 5.441406 2.0625 3.339844 2.0625 C 1.070312 2.0625 -0.78125 3.957031 -0.78125 6.183594 Z M 2.347656 3.503906 C 2.347656 3.253906 2.800781 3.132812 3.339844 3.132812 C 4.988281 3.132812 6.386719 4.367188 6.386719 6.265625 C 6.386719 6.46875 6.265625 6.59375 6.140625 6.59375 C 6.058594 6.59375 5.933594 6.511719 5.851562 6.304688 C 5.316406 4.820312 4.699219 3.996094 2.84375 3.832031 C 2.554688 3.792969 2.347656 3.710938 2.347656 3.503906 Z M 2.347656 3.503906 "/></g></g></g><path stroke-linecap="butt" transform="matrix(0, 0.83733, -0.83733, 0, 86.765344, 20.462656)" fill="none" stroke-linejoin="miter" d="M 8.301869 46.935482 C 11.016972 46.935482 13.176924 44.668232 13.176924 42.009111 C 13.176924 39.499274 10.965655 37.190037 8.301869 37.190037 C 5.642748 37.190037 3.384828 39.499274 3.384828 42.009111 C 3.384828 44.724213 5.642748 46.935482 8.301869 46.935482 Z M 5.101594 43.198718 C 4.817021 43.198718 4.658407 42.648233 4.658407 42.009111 C 4.658407 40.040428 6.137251 38.370314 8.409167 38.370314 C 8.647088 38.370314 8.791707 38.514933 8.791707 38.668882 C 8.791707 38.766849 8.698405 38.911468 8.455818 39.004771 C 6.678406 39.653223 5.694065 40.390313 5.498129 42.601582 C 5.451478 42.946801 5.358176 43.198718 5.101594 43.198718 Z M 5.101594 43.198718 " stroke="#000000" stroke-width="0.338394" stroke-opacity="1" stroke-miterlimit="4"/><g fill="#f6f4ea" fill-opacity="1"><g transform="translate(52.089212, 32.820714)"><g><path d="M -0.78125 6.183594 C -0.78125 8.449219 1.113281 10.261719 3.339844 10.261719 C 5.441406 10.261719 7.378906 8.40625 7.378906 6.183594 C 7.378906 3.957031 5.441406 2.0625 3.339844 2.0625 C 1.070312 2.0625 -0.78125 3.957031 -0.78125 6.183594 Z M 2.347656 3.503906 C 2.347656 3.253906 2.800781 3.132812 3.339844 3.132812 C 4.988281 3.132812 6.386719 4.367188 6.386719 6.265625 C 6.386719 6.46875 6.265625 6.59375 6.140625 6.59375 C 6.058594 6.59375 5.933594 6.511719 5.851562 6.304688 C 5.316406 4.820312 4.699219 3.996094 2.84375 3.832031 C 2.554688 3.792969 2.347656 3.710938 2.347656 3.503906 Z M 2.347656 3.503906 "/></g></g></g><path stroke-linecap="butt" transform="matrix(0, 0.83733, -0.83733, 0, 90.606405, 32.0488)" fill="none" stroke-linejoin="miter" d="M 8.301622 46.936936 C 11.016725 46.936936 13.176677 44.66502 13.176677 42.010564 C 13.176677 39.500727 10.970073 37.19149 8.301622 37.19149 C 5.642501 37.19149 3.384581 39.500727 3.384581 42.010564 C 3.384581 44.725667 5.642501 46.936936 8.301622 46.936936 Z M 5.101347 43.200171 C 4.816774 43.200171 4.65816 42.649686 4.65816 42.010564 C 4.65816 40.041882 6.137004 38.371767 8.40892 38.371767 C 8.646841 38.371767 8.79146 38.511721 8.79146 38.670335 C 8.79146 38.768303 8.698158 38.908256 8.455571 39.006224 C 6.678159 39.654676 5.693818 40.387101 5.497882 42.59837 C 5.451231 42.948254 5.357929 43.200171 5.101347 43.200171 Z M 5.101347 43.200171 " stroke="#000000" stroke-width="0.338394" stroke-opacity="1" stroke-miterlimit="4"/><g fill="#f6f4ea" fill-opacity="1"><g transform="translate(49.397005, 44.406863)"><g><path d="M -0.78125 6.183594 C -0.78125 8.449219 1.113281 10.261719 3.339844 10.261719 C 5.441406 10.261719 7.378906 8.40625 7.378906 6.183594 C 7.378906 3.957031 5.441406 2.0625 3.339844 2.0625 C 1.070312 2.0625 -0.78125 3.957031 -0.78125 6.183594 Z M 2.347656 3.503906 C 2.347656 3.253906 2.800781 3.132812 3.339844 3.132812 C 4.988281 3.132812 6.386719 4.367188 6.386719 6.265625 C 6.386719 6.46875 6.265625 6.59375 6.140625 6.59375 C 6.058594 6.59375 5.933594 6.511719 5.851562 6.304688 C 5.316406 4.820312 4.699219 3.996094 2.84375 3.832031 C 2.554688 3.792969 2.347656 3.710938 2.347656 3.503906 Z M 2.347656 3.503906 "/></g></g></g><path stroke-linecap="butt" transform="matrix(0, 0.83733, -0.83733, 0, 87.914197, 43.634949)" fill="none" stroke-linejoin="miter" d="M 8.30137 46.935979 C 11.016472 46.935979 13.18109 44.664064 13.18109 42.009608 C 13.18109 39.499771 10.969821 37.190534 8.30137 37.190534 C 5.642249 37.190534 3.384328 39.499771 3.384328 42.009608 C 3.384328 44.72471 5.642249 46.935979 8.30137 46.935979 Z M 5.105759 43.199214 C 4.816522 43.199214 4.657907 42.64873 4.657907 42.009608 C 4.657907 40.040925 6.136752 38.370811 8.408667 38.370811 C 8.646589 38.370811 8.791208 38.515429 8.791208 38.669379 C 8.791208 38.767346 8.697905 38.911965 8.455319 39.005268 C 6.677906 39.65372 5.693565 40.386144 5.502295 42.597413 C 5.450979 42.947298 5.357676 43.199214 5.105759 43.199214 Z M 5.105759 43.199214 " stroke="#000000" stroke-width="0.338394" stroke-opacity="1" stroke-miterlimit="4"/></svg>