<svg xmlns="http://www.w3.org/2000/svg" xmlns:xlink="http://www.w3.org/1999/xlink" width="122" zoomAndPan="magnify" viewBox="0 0 91.5 35.25" height="47" preserveAspectRatio="xMidYMid meet" version="1.0"><defs><g/><clipPath id="0ba2035e63"><path d="M 11 25 L 46 25 L 46 34.515625 L 11 34.515625 Z M 11 25 " clip-rule="nonzero"/></clipPath><clipPath id="20a9c3befa"><path d="M 9 23 L 48 23 L 48 34.515625 L 9 34.515625 Z M 9 23 " clip-rule="nonzero"/></clipPath><clipPath id="381c2a95f6"><path d="M 47 23 L 59 23 L 59 34.515625 L 47 34.515625 Z M 47 23 " clip-rule="nonzero"/></clipPath></defs><g fill="#f6f4ea" fill-opacity="1"><g transform="translate(16.911409, 2.118488)"><g><path d="M -0.195312 4.3125 C -0.195312 6.109375 0.949219 7.386719 2.90625 7.386719 L 20.355469 7.386719 C 22.316406 7.386719 23.460938 6.109375 23.460938 4.3125 C 23.460938 2.484375 22.316406 1.210938 20.355469 1.210938 L 2.90625 1.210938 C 0.949219 1.210938 -0.195312 2.484375 -0.195312 4.3125 Z M 19.179688 2.253906 C 19.179688 2.058594 19.539062 1.960938 20.292969 1.960938 C 21.828125 1.960938 22.710938 3.039062 22.710938 4.445312 C 22.710938 4.605469 22.613281 4.707031 22.515625 4.707031 C 22.449219 4.707031 22.351562 4.640625 22.285156 4.476562 C 21.894531 3.300781 21.238281 2.648438 19.574219 2.515625 C 19.34375 2.484375 19.179688 2.417969 19.179688 2.253906 Z M 19.179688 2.253906 "/></g></g></g><path stroke-linecap="butt" transform="matrix(0, 0.303624, -0.303624, 0, 47.881075, 2.118488)" fill="none" stroke-linejoin="miter" d="M 14.211998 102.660263 C 20.130087 102.660263 24.324211 98.877832 24.324211 92.40653 L 24.324211 34.949601 C 24.324211 28.478299 20.130087 24.721599 14.211998 24.721599 C 8.165254 24.721599 3.996861 28.478299 3.996861 34.949601 L 3.996861 92.40653 C 3.996861 98.877832 8.165254 102.660263 14.211998 102.660263 Z M 7.431926 38.834956 C 6.77579 38.834956 6.46702 37.651338 6.46702 35.155448 C 6.46702 30.112207 10.005008 27.191758 14.636556 27.191758 C 15.189769 27.191758 15.498539 27.539124 15.498539 27.847894 C 15.498539 28.066606 15.292692 28.375376 14.73948 28.619819 C 10.879856 29.90636 8.718467 32.054884 8.281043 37.548415 C 8.165254 38.281743 7.959408 38.834956 7.431926 38.834956 Z M 7.431926 38.834956 " stroke="#000000" stroke-width="0.739908" stroke-opacity="1" stroke-miterlimit="4"/><g fill="#f6f4ea" fill-opacity="1"><g transform="translate(13.939316, 11.877873)"><g><path d="M -0.246094 5.386719 C -0.246094 7.628906 1.183594 9.222656 3.632812 9.222656 L 25.421875 9.222656 C 27.871094 9.222656 29.300781 7.628906 29.300781 5.386719 C 29.300781 3.101562 27.871094 1.511719 25.421875 1.511719 L 3.632812 1.511719 C 1.183594 1.511719 -0.246094 3.101562 -0.246094 5.386719 Z M 23.953125 2.816406 C 23.953125 2.570312 24.402344 2.449219 25.339844 2.449219 C 27.257812 2.449219 28.359375 3.796875 28.359375 5.550781 C 28.359375 5.753906 28.238281 5.875 28.117188 5.875 C 28.035156 5.875 27.910156 5.792969 27.832031 5.589844 C 27.339844 4.121094 26.523438 3.304688 24.441406 3.140625 C 24.15625 3.101562 23.953125 3.019531 23.953125 2.816406 Z M 23.953125 2.816406 "/></g></g></g><path stroke-linecap="butt" transform="matrix(0, 0.379173, -0.379173, 0, 52.614993, 11.877873)" fill="none" stroke-linejoin="miter" d="M 14.219508 102.653817 C 20.122564 102.653817 24.325788 98.872977 24.325788 92.413611 L 24.325788 34.948957 C 24.325788 28.47929 20.122564 24.729356 14.219508 24.729356 C 8.172224 24.729356 3.989605 28.47929 3.989605 34.948957 L 3.989605 92.413611 C 3.989605 98.872977 8.172224 102.653817 14.219508 102.653817 Z M 7.440781 38.832818 C 6.781452 38.832818 6.462089 37.658388 6.462089 35.154997 C 6.462089 30.117311 10.005983 27.20184 14.631589 27.20184 C 15.187898 27.20184 15.496959 27.541806 15.496959 27.850867 C 15.496959 28.067209 15.290918 28.37627 14.744911 28.613216 C 10.881655 29.900968 8.718231 32.05409 8.275244 37.545065 C 8.172224 38.286811 7.966184 38.832818 7.440781 38.832818 Z M 7.440781 38.832818 " stroke="#000000" stroke-width="0.739908" stroke-opacity="1" stroke-miterlimit="4"/><g clip-path="url(#0ba2035e63)"><g fill="#f6f4ea" fill-opacity="1"><g transform="translate(11.772256, 23.559064)"><g><path d="M -0.28125 6.164062 C -0.28125 8.730469 1.355469 10.550781 4.15625 10.550781 L 29.089844 10.550781 C 31.890625 10.550781 33.523438 8.730469 33.523438 6.164062 C 33.523438 3.546875 31.890625 1.726562 29.089844 1.726562 L 4.15625 1.726562 C 1.355469 1.726562 -0.28125 3.546875 -0.28125 6.164062 Z M 27.40625 3.222656 C 27.40625 2.941406 27.921875 2.800781 28.996094 2.800781 C 31.191406 2.800781 32.449219 4.34375 32.449219 6.351562 C 32.449219 6.582031 32.308594 6.722656 32.171875 6.722656 C 32.078125 6.722656 31.9375 6.628906 31.84375 6.398438 C 31.28125 4.714844 30.347656 3.78125 27.96875 3.59375 C 27.640625 3.546875 27.40625 3.457031 27.40625 3.222656 Z M 27.40625 3.222656 "/></g></g></g></g><g clip-path="url(#20a9c3befa)"><path stroke-linecap="butt" transform="matrix(0, 0.433849, -0.433849, 0, 56.024887, 23.559064)" fill="none" stroke-linejoin="miter" d="M 14.215762 102.654548 C 20.122191 102.654548 24.32692 98.872993 24.32692 92.408335 L 24.32692 34.946709 C 24.32692 28.482051 20.122191 24.727507 14.215762 24.727507 C 8.174278 24.727507 3.99656 28.482051 3.99656 34.946709 L 3.99656 92.408335 C 3.99656 98.872993 8.174278 102.654548 14.215762 102.654548 Z M 7.435975 38.836308 C 6.778704 38.836308 6.463575 37.656823 6.463575 35.153794 C 6.463575 30.111721 10.011033 27.194521 14.638936 27.194521 C 15.188162 27.194521 15.503292 27.536662 15.503292 27.851791 C 15.503292 28.06788 15.296206 28.38301 14.737977 28.617106 C 10.875389 29.904635 8.723504 32.05652 8.273319 37.548778 C 8.174278 38.287082 7.958189 38.836308 7.435975 38.836308 Z M 7.435975 38.836308 " stroke="#000000" stroke-width="0.739908" stroke-opacity="1" stroke-miterlimit="4"/></g><g fill="#f6f4ea" fill-opacity="1"><g transform="translate(48.461668, -0.0606893)"><g><path d="M -0.769531 6.085938 C -0.769531 8.316406 1.09375 10.101562 3.285156 10.101562 C 5.355469 10.101562 7.261719 8.277344 7.261719 6.085938 C 7.261719 3.894531 5.355469 2.027344 3.285156 2.027344 C 1.054688 2.027344 -0.769531 3.894531 -0.769531 6.085938 Z M 2.3125 3.449219 C 2.3125 3.207031 2.757812 3.082031 3.285156 3.082031 C 4.910156 3.082031 6.289062 4.300781 6.289062 6.167969 C 6.289062 6.371094 6.167969 6.492188 6.046875 6.492188 C 5.964844 6.492188 5.84375 6.410156 5.761719 6.207031 C 5.234375 4.746094 4.625 3.9375 2.800781 3.773438 C 2.515625 3.734375 2.3125 3.652344 2.3125 3.449219 Z M 2.3125 3.449219 "/></g></g></g><path stroke-linecap="butt" transform="matrix(0, 0.824366, -0.824366, 0, 86.382503, -0.820652)" fill="none" stroke-linejoin="miter" d="M 8.302246 46.939107 C 11.017401 46.939107 13.178152 44.664632 13.178152 42.011077 C 13.178152 39.499678 10.970016 37.192033 8.302246 37.192033 C 5.643953 37.192033 3.383693 39.499678 3.383693 42.011077 C 3.383693 44.726232 5.643953 46.939107 8.302246 46.939107 Z M 5.103765 43.200438 C 4.814717 43.200438 4.658347 42.646035 4.658347 42.011077 C 4.658347 40.039865 6.136756 38.367178 8.406493 38.367178 C 8.648156 38.367178 8.795049 38.514072 8.795049 38.670442 C 8.795049 38.765212 8.695541 38.912105 8.458616 39.006875 C 6.676944 39.656048 5.691338 40.390514 5.501798 42.59865 C 5.454413 42.949298 5.354905 43.200438 5.103765 43.200438 Z M 5.103765 43.200438 " stroke="#000000" stroke-width="0.338394" stroke-opacity="1" stroke-miterlimit="4"/><g fill="#f6f4ea" fill-opacity="1"><g transform="translate(52.243262, 11.346072)"><g><path d="M -0.769531 6.085938 C -0.769531 8.316406 1.09375 10.101562 3.285156 10.101562 C 5.355469 10.101562 7.261719 8.277344 7.261719 6.085938 C 7.261719 3.894531 5.355469 2.027344 3.285156 2.027344 C 1.054688 2.027344 -0.769531 3.894531 -0.769531 6.085938 Z M 2.3125 3.449219 C 2.3125 3.207031 2.757812 3.082031 3.285156 3.082031 C 4.910156 3.082031 6.289062 4.300781 6.289062 6.167969 C 6.289062 6.371094 6.167969 6.492188 6.046875 6.492188 C 5.964844 6.492188 5.84375 6.410156 5.761719 6.207031 C 5.234375 4.746094 4.625 3.9375 2.800781 3.773438 C 2.515625 3.734375 2.3125 3.652344 2.3125 3.449219 Z M 2.3125 3.449219 "/></g></g></g><path stroke-linecap="butt" transform="matrix(0, 0.824366, -0.824366, 0, 90.164097, 10.586109)" fill="none" stroke-linejoin="miter" d="M 8.301626 46.939524 C 11.016781 46.939524 13.177532 44.665049 13.177532 42.011495 C 13.177532 39.500095 10.969396 37.19245 8.301626 37.19245 C 5.643333 37.19245 3.383073 39.500095 3.383073 42.011495 C 3.383073 44.726649 5.643333 46.939524 8.301626 46.939524 Z M 5.103145 43.200856 C 4.814097 43.200856 4.657727 42.646452 4.657727 42.011495 C 4.657727 40.040283 6.136136 38.367596 8.405873 38.367596 C 8.647536 38.367596 8.794429 38.514489 8.794429 38.670859 C 8.794429 38.765629 8.694921 38.912522 8.457996 39.007292 C 6.676324 39.656465 5.690718 40.386192 5.501178 42.599067 C 5.453793 42.949716 5.354285 43.200856 5.103145 43.200856 Z M 5.103145 43.200856 " stroke="#000000" stroke-width="0.338394" stroke-opacity="1" stroke-miterlimit="4"/><g fill="#f6f4ea" fill-opacity="1"><g transform="translate(49.592727, 22.752832)"><g><path d="M -0.769531 6.085938 C -0.769531 8.316406 1.09375 10.101562 3.285156 10.101562 C 5.355469 10.101562 7.261719 8.277344 7.261719 6.085938 C 7.261719 3.894531 5.355469 2.027344 3.285156 2.027344 C 1.054688 2.027344 -0.769531 3.894531 -0.769531 6.085938 Z M 2.3125 3.449219 C 2.3125 3.207031 2.757812 3.082031 3.285156 3.082031 C 4.910156 3.082031 6.289062 4.300781 6.289062 6.167969 C 6.289062 6.371094 6.167969 6.492188 6.046875 6.492188 C 5.964844 6.492188 5.84375 6.410156 5.761719 6.207031 C 5.234375 4.746094 4.625 3.9375 2.800781 3.773438 C 2.515625 3.734375 2.3125 3.652344 2.3125 3.449219 Z M 2.3125 3.449219 "/></g></g></g><g clip-path="url(#381c2a95f6)"><path stroke-linecap="butt" transform="matrix(0, 0.824366, -0.824366, 0, 87.513563, 21.992869)" fill="none" stroke-linejoin="miter" d="M 8.301007 46.936981 C 11.016162 46.936981 13.176914 44.667244 13.176914 42.008951 C 13.176914 39.497551 10.968777 37.189907 8.301007 37.189907 C 5.642714 37.189907 3.387193 39.497551 3.387193 42.008951 C 3.387193 44.724106 5.642714 46.936981 8.301007 46.936981 Z M 5.102527 43.198312 C 4.813479 43.198312 4.657109 42.648647 4.657109 42.008951 C 4.657109 40.037739 6.135517 38.369791 8.409993 38.369791 C 8.646917 38.369791 8.79381 38.511945 8.79381 38.668315 C 8.79381 38.767824 8.694302 38.909978 8.457378 39.004748 C 6.675705 39.653921 5.690099 40.388387 5.50056 42.601262 C 5.453175 42.947172 5.353667 43.198312 5.102527 43.198312 Z M 5.102527 43.198312 " stroke="#000000" stroke-width="0.338394" stroke-opacity="1" stroke-miterlimit="4"/></g></svg>